<?xml version="1.0" encoding="UTF-8"?>
<svg id="_レイヤー_1" data-name="レイヤー 1" xmlns="http://www.w3.org/2000/svg" width="403.82" height="225.43" xmlns:xlink="http://www.w3.org/1999/xlink" viewBox="0 0 403.82 225.43">
  <defs>
    <style>
      .cls-1 {
        stroke-width: 4px;
      }

      .cls-1, .cls-2, .cls-3 {
        fill: none;
      }

      .cls-1, .cls-4, .cls-3 {
        stroke-miterlimit: 10;
      }

      .cls-1, .cls-3 {
        stroke: #00d1eb;
      }

      .cls-4 {
        fill: #666;
        stroke: #666;
      }

      .cls-5 {
        fill: #ff8c00;
      }

      .cls-3 {
        stroke-width: 2px;
      }

      .cls-6 {
        clip-path: url(#clippath);
      }
    </style>
    <clipPath id="clippath">
      <rect class="cls-2" x="13.32" y="14.66" width="143.16" height="137.28"/>
    </clipPath>
  </defs>
  <path d="M83.56,99.56c0,.27-.03.6-.1,1-.06.4-.16.8-.28,1.2-.12.41-.26.79-.42,1.16-.16.36-.34.65-.54.86-.52.6-1.45.91-2.79.91,0-1.42-.21-2.59-.62-3.53-.19-.44-.55-.81-1.05-1.11-.51-.3-1.08-.56-1.7-.77-.63-.21-1.26-.36-1.9-.45-.64-.09-1.18-.14-1.64-.14-1.04,0-2.04.02-3,.06-.96.04-1.9.13-2.82.27-.92.14-1.85.32-2.79.56-.94.24-1.92.56-2.94.95-.78.31-1.59.68-2.43,1.11-.84.43-1.62.91-2.34,1.45-.71.54-1.33,1.14-1.85,1.78-.52.65-.84,1.35-.97,2.13-.04.58.14,1.25.55,2,.41.75.97,1.48,1.67,2.19.7.71,1.51,1.35,2.43,1.94.92.58,1.88,1.01,2.87,1.28.17.06.57.2,1.2.41.63.21,1.3.43,2.03.66.72.23,1.4.44,2.01.64.62.2,1.01.32,1.18.36,4.89,1.21,8.52,2.64,10.89,4.3s3.55,3.68,3.55,6.08c0,.77-.18,1.54-.54,2.3-.36.76-.81,1.49-1.35,2.19-.54.7-1.12,1.34-1.75,1.92-.63.58-1.21,1.07-1.75,1.47-.63.48-1.34.97-2.14,1.49-.8.51-1.65,1.01-2.56,1.48-.91.48-1.85.93-2.82,1.34s-1.96.78-2.95,1.09c-.97.31-2,.6-3.07.86-1.07.26-2.13.48-3.18.67-1.05.19-2.06.34-3.02.45-.96.11-1.82.17-2.58.17-.56,0-1.29-.08-2.19-.23-.9-.16-1.78-.38-2.64-.66-.87-.28-1.61-.62-2.22-1-.62-.39-.92-.8-.92-1.23,0-.27.04-.6.11-1,.08-.4.18-.78.32-1.16.14-.38.3-.69.49-.95.18-.26.39-.39.63-.39.43,0,.88.07,1.35.2.46.14,1.02.29,1.65.45.64.17,1.4.32,2.27.45.88.14,1.94.2,3.2.2s2.64-.13,4.04-.39c1.4-.26,2.76-.61,4.1-1.05,1.34-.44,2.62-.94,3.84-1.5,1.22-.56,2.32-1.15,3.29-1.75.45-.29.96-.63,1.51-1.02.55-.39,1.07-.81,1.54-1.27.48-.46.88-.95,1.2-1.47.32-.52.49-1.06.49-1.63,0-.79-.61-1.55-1.82-2.28-1.19-.71-2.41-1.26-3.65-1.66-1.24-.4-2.35-.71-3.33-.94-1.19-.29-2.53-.68-4.01-1.16-1.48-.48-3.11-1.05-4.88-1.72-2.94-1.08-5.43-2.67-7.46-4.75-2.03-2.08-3.05-4.6-3.05-7.53-.04-1.38.39-2.7,1.31-3.97.92-1.27,2.16-2.45,3.71-3.53,1.56-1.08,3.34-2.05,5.34-2.89,2-.84,4.06-1.51,6.18-1.99.43-.08.96-.18,1.57-.28.62-.1,1.25-.19,1.91-.27.66-.07,1.3-.14,1.91-.19.62-.05,1.14-.08,1.57-.08.52,0,1.17.04,1.96.11.79.07,1.6.17,2.43.3.83.13,1.62.28,2.37.47s1.35.41,1.8.66c1.1.56,1.97,1.24,2.6,2.03.63.79.94,1.56.94,2.31Z"/>
  <g>
    <path class="cls-5" d="M118.23,130.53s.05-.04.07-.04c.05,0,.08.06.11.18.03.12.05.28.05.47,0,.23-.03.48-.09.75-.06.27-.15.51-.27.73-.99,1.16-2.16,2.19-3.5,3.08-1.34.89-2.74,1.68-4.2,2.36-.59.26-1.13.49-1.63.69s-.98.36-1.44.48c-.47.12-.94.21-1.42.27-.48.06-1,.09-1.56.09-.62,0-1.19-.12-1.73-.37-.53-.25-1-.64-1.41-1.19s-.73-1.25-.96-2.11c-.23-.86-.35-1.91-.35-3.14-.75,1.07-1.62,2.12-2.6,3.13-.98,1.02-1.96,1.92-2.95,2.72-.99.8-1.93,1.44-2.82,1.91-.9.48-1.64.72-2.22.72-.65,0-1.21-.12-1.68-.35-.47-.23-.86-.53-1.16-.9-.3-.37-.53-.78-.68-1.24-.15-.46-.23-.9-.23-1.34,0-.23,0-.52.02-.86.01-.34.05-.69.09-1.04.05-.36.1-.71.17-1.05s.15-.65.24-.91c.26-.87.62-1.79,1.08-2.75.47-.96,1-1.92,1.59-2.87.59-.95,1.24-1.87,1.95-2.76.71-.89,1.43-1.7,2.16-2.42.73-.72,1.46-1.35,2.2-1.87.74-.52,1.44-.89,2.1-1.11.18-.09.42-.17.71-.26s.61-.16.94-.23c.33-.07.64-.12.94-.16s.53-.07.71-.07c.35,0,.65.08.93.25.27.17.5.38.7.65.2.27.34.57.44.9.1.33.15.66.15.98.17-.06.37-.09.61-.09.38,0,.73.08,1.06.25.33.17.5.42.5.75,0,.16-.03.36-.08.61-.05.25-.12.52-.19.83-.08.3-.17.62-.27.94-.11.32-.2.62-.29.89-.11.3-.21.69-.3,1.14-.1.46-.19.94-.27,1.44-.08.5-.15.99-.19,1.48-.05.49-.07.91-.07,1.27,0,1.77.22,3.06.67,3.86.44.8,1.24,1.21,2.38,1.21.42,0,.95-.08,1.58-.25.63-.17,1.31-.39,2.03-.66.72-.28,1.47-.61,2.26-.99.78-.38,1.55-.79,2.3-1.23.75-.43,1.46-.89,2.12-1.36.66-.47,1.23-.93,1.72-1.38ZM96.38,133.14c.47-.49.97-1.1,1.51-1.83.54-.72,1.06-1.51,1.56-2.36s.93-1.73,1.31-2.65c.38-.92.65-1.83.81-2.73-.15-.52-.39-.88-.72-1.09-.33-.2-.69-.3-1.08-.3-.42,0-.85.08-1.3.23-.44.15-.84.31-1.18.47-.44.2-.94.58-1.52,1.12-.58.54-1.18,1.19-1.81,1.94-.62.75-1.23,1.56-1.83,2.45-.59.88-1.13,1.77-1.6,2.65-.47.88-.86,1.74-1.15,2.56-.29.82-.44,1.54-.44,2.16,0,.23.03.48.1.74s.15.5.26.73c.11.23.23.41.36.55.14.15.27.22.41.22.15,0,.44-.12.87-.36s.93-.57,1.51-1c.58-.43,1.21-.94,1.9-1.53.68-.59,1.37-1.25,2.04-1.96Z"/>
    <path d="M137.98,131.49c0,.51-.2,1.06-.59,1.65-.39.59-.95,1.26-1.67,2-.83.84-1.74,1.62-2.73,2.34s-2.02,1.34-3.07,1.87c-1.05.53-2.12.95-3.2,1.25s-2.13.46-3.14.46c-2.36,0-4.19-.73-5.48-2.2-1.29-1.46-1.94-3.61-1.94-6.44,0-.9.08-1.82.25-2.75.17-.94.41-1.86.73-2.77.32-.91.73-1.8,1.22-2.65.49-.86,1.06-1.65,1.7-2.39.41-.45.86-.91,1.35-1.37.5-.46,1.05-.88,1.65-1.25.6-.37,1.26-.67,1.97-.9.71-.23,1.49-.35,2.34-.35.6,0,1.14.11,1.63.34.48.22.89.51,1.22.86.33.35.58.74.76,1.17.17.43.26.86.26,1.28,0,.88-.25,1.78-.74,2.69-.5.91-1.2,1.82-2.1,2.74-.9.92-1.99,1.84-3.25,2.76-1.26.92-2.67,1.84-4.22,2.75-.21.12-.42.24-.63.38-.21.14-.32.31-.32.51,0,.43.06.89.18,1.37.12.48.34.92.65,1.32.32.4.74.73,1.28.99.53.26,1.21.39,2.04.39,1.05,0,2.13-.16,3.22-.49,1.09-.33,2.16-.78,3.2-1.36,1.05-.58,2.06-1.27,3.05-2.07.99-.8,1.91-1.66,2.76-2.59.48-.51.87-.76,1.15-.76.17,0,.29.09.36.28.08.19.11.5.11.94ZM127.5,122.2c0-.16-.05-.3-.14-.43-.09-.13-.2-.24-.33-.33-.13-.09-.26-.16-.41-.21-.14-.05-.27-.08-.37-.08-.66,0-1.34.23-2.03.68-.69.46-1.34,1.09-1.94,1.9-.6.81-1.13,1.78-1.58,2.89-.45,1.12-.76,2.33-.93,3.63.21-.13.49-.32.84-.57.35-.25.72-.52,1.12-.82.4-.3.8-.6,1.2-.9.4-.3.76-.59,1.07-.85.69-.57,1.26-1.07,1.72-1.51.45-.44.81-.85,1.07-1.22.26-.37.45-.73.55-1.09.11-.36.16-.73.16-1.12Z"/>
  </g>
  <path d="M39.27,186.85c.26-.98.57-2.21.92-3.7.36-1.49.72-3.11,1.1-4.86.38-1.75.76-3.58,1.15-5.49.39-1.91.75-3.76,1.07-5.55.32-1.79.61-3.47.84-5.03.24-1.56.4-2.9.49-4,.02-.44.02-.9-.02-1.39-.03-.49-.02-.97.05-1.44.06-.47.22-.92.45-1.34.24-.43.66-.79,1.27-1.08.74-.35,1.41-.51,2.01-.47.61.04,1.27.25,1.98.63.15.08.3.31.45.69.15.38.3.81.44,1.31.14.5.27,1.03.39,1.58.12.55.23,1.03.34,1.42.26.96.72,2.16,1.38,3.6.66,1.44,1.48,3.02,2.45,4.74.97,1.72,2.07,3.54,3.29,5.47,1.22,1.93,2.51,3.86,3.86,5.78,1.35,1.93,2.74,3.81,4.15,5.64,1.42,1.83,2.82,3.53,4.2,5.1.58-2.17,1.09-4.23,1.52-6.19.43-1.96.83-3.88,1.18-5.77.36-1.89.7-3.76,1.02-5.63.32-1.87.65-3.8.97-5.8.17-1.02.36-2.16.55-3.42.19-1.26.38-2.53.55-3.81.17-1.28.32-2.52.44-3.72.12-1.2.19-2.24.21-3.11v-1.06c0-.35.02-.69.05-1.02.03-.32.11-.64.23-.94.12-.3.31-.57.57-.8.69-.6,1.32-.97,1.88-1.09.56-.13,1.16-.19,1.78-.19.3,0,.58.17.84.5.26.33.49.73.68,1.19.19.46.35.93.47,1.42.12.49.19.88.21,1.17.02.27-.02.7-.13,1.3-.11.59-.24,1.23-.41,1.92s-.33,1.37-.5,2.03c-.17.67-.31,1.19-.42,1.56-.5,1.9-1,3.99-1.51,6.27-.51,2.28-1,4.59-1.46,6.92-.47,2.33-.9,4.62-1.31,6.85-.41,2.23-.77,4.24-1.07,6.03-.3,1.79-.54,3.28-.7,4.45-.16,1.18-.23,1.88-.21,2.11.02.31.04.67.05,1.06.01.4.02.79.02,1.17v1.09c0,.34.01.61.03.8.04.5,0,.93-.15,1.3-.14.36-.32.67-.55.92s-.48.45-.76.61c-.28.16-.54.28-.78.36-.28.08-.61.16-.97.22-.37.06-.73.09-1.09.09s-.69-.03-1.01-.08c-.31-.05-.55-.16-.7-.33-.82-.75-1.51-1.47-2.06-2.17-.55-.7-.91-1.38-1.09-2.05-.04-.21-.15-.46-.32-.77-.17-.3-.36-.6-.57-.91-.21-.3-.41-.58-.6-.84-.19-.26-.36-.46-.49-.61-1.41-1.75-2.79-3.52-4.15-5.31-1.36-1.79-2.73-3.7-4.1-5.72-1.37-2.02-2.76-4.19-4.17-6.5-1.41-2.31-2.87-4.85-4.38-7.6-.61,2.08-1.15,4.3-1.62,6.66-.48,2.36-.91,4.67-1.3,6.94-.39,2.27-.74,4.42-1.04,6.46-.3,2.03-.56,3.77-.78,5.2-.06.42-.1.93-.1,1.55v1.86c0,.63-.02,1.21-.06,1.77-.04.55-.13.98-.26,1.3-.11.23-.28.5-.5.81s-.49.61-.78.91c-.29.29-.61.54-.94.73-.34.2-.67.3-.99.3-.63,0-1.12-.09-1.48-.28s-.63-.46-.83-.83c-.19-.37-.34-.82-.42-1.36-.09-.54-.16-1.17-.23-1.88-.02-.27,0-.7.08-1.3.08-.59.18-1.25.32-1.97.14-.72.3-1.46.47-2.24.17-.77.36-1.49.55-2.16Z"/>
  <g>
    <path d="M122.17,179.41c0,.15-.05.31-.14.5-.56,1.06-1.2,2.15-1.94,3.28-.74,1.13-1.53,2.24-2.39,3.33s-1.76,2.11-2.7,3.08c-.94.96-1.88,1.81-2.82,2.54-.94.73-1.87,1.31-2.78,1.74-.91.43-1.76.64-2.56.64-1.75,0-3.11-.64-4.1-1.91-.99-1.28-1.51-3.16-1.57-5.65l-.29-.11c-.15.15-.39.44-.73.89-.34.45-.74.97-1.22,1.55s-1,1.2-1.58,1.84c-.58.64-1.18,1.22-1.79,1.74-.38.3-.83.67-1.37,1.1-.53.43-1.14.84-1.81,1.24-.67.4-1.4.75-2.2,1.04-.8.3-1.64.47-2.53.51-1.07,0-1.91-.2-2.53-.59-.62-.39-1.08-.89-1.4-1.5s-.52-1.28-.6-2.02c-.08-.74-.12-1.46-.12-2.15,0-.09.01-.3.05-.65.03-.35.08-.79.14-1.32.06-.53.14-1.12.24-1.77.1-.65.22-1.32.36-1.99.14-.67.31-1.34.5-2,.19-.66.41-1.26.67-1.82.14-.3.26-.59.37-.85s.23-.48.36-.66c.13-.18.27-.33.44-.43.17-.11.37-.17.61-.18.3,0,.55.06.76.17.2.12.36.26.49.45.12.18.21.38.26.6.05.22.08.43.08.65s-.1.65-.3,1.28c-.2.64-.43,1.41-.67,2.33-.24.91-.46,1.93-.67,3.06-.2,1.12-.3,2.29-.3,3.49,0,.23.02.5.07.82.05.31.14.61.27.89s.32.52.55.72c.23.2.54.29.91.29.51-.03,1.04-.13,1.58-.32.54-.18,1.08-.41,1.61-.7.53-.28,1.05-.6,1.55-.96.5-.36.95-.72,1.35-1.1.44-.39.9-.84,1.39-1.36.49-.51.97-1.05,1.43-1.61.47-.56.9-1.11,1.31-1.66.41-.55.74-1.06,1.02-1.52.14-.25.33-.61.58-1.09s.5-.99.74-1.52c.25-.54.47-1.04.68-1.52s.33-.84.39-1.09c.06-.22.11-.42.15-.61.04-.19.08-.37.12-.55.05-.18.1-.37.16-.58.06-.2.14-.43.23-.7.05-.1.13-.21.26-.34.13-.12.28-.24.46-.34.18-.1.37-.18.56-.25.2-.07.38-.1.56-.1.42,0,.74.12.96.37.22.25.34.55.37.91,0,.01-.03.18-.1.5-.07.32-.15.74-.26,1.26-.11.52-.21,1.12-.33,1.78-.11.67-.22,1.35-.33,2.06-.11.7-.19,1.39-.26,2.07s-.1,1.28-.1,1.82c0,1.54.27,2.72.8,3.56.53.83,1.24,1.25,2.11,1.25.75,0,1.54-.21,2.36-.64.82-.43,1.65-.99,2.48-1.69s1.65-1.48,2.46-2.34c.8-.86,1.58-1.73,2.31-2.59.74-.86,1.42-1.69,2.05-2.47s1.18-1.44,1.65-1.98c.47-.48.84-.72,1.11-.72.17,0,.3.06.41.17.11.12.16.25.16.41Z"/>
    <path class="cls-5" d="M155.55,183.3c0,.28-.05.55-.15.84-.1.28-.22.57-.36.85-.14.28-.3.56-.49.83-.18.27-.35.53-.52.77-.44.65-.95,1.32-1.53,1.99s-1.22,1.33-1.88,1.97c-.67.64-1.36,1.24-2.07,1.81-.71.57-1.4,1.07-2.08,1.5-.54.35-1.06.67-1.55.98-.49.3-.98.57-1.48.78s-1.02.39-1.56.52-1.14.2-1.78.2c-1.25,0-2.26-.3-3.05-.91-.39-.3-.73-.7-1.03-1.19-.29-.49-.55-1.03-.77-1.62-.22-.59-.41-1.22-.56-1.89-.16-.67-.29-1.33-.39-1.98-.14-.81-.26-1.54-.38-2.19-.12-.64-.26-1.19-.42-1.63-.16-.44-.35-.78-.58-1.02s-.52-.36-.88-.36c-.29,0-.56.03-.81.09-.26.06-.52.17-.8.35-.28.17-.58.42-.91.74-.33.32-.72.74-1.16,1.26-.44.52-.95,1.16-1.52,1.91-.57.75-1.24,1.65-2.01,2.7-.38.51-.82,1.07-1.33,1.67-.51.61-1.03,1.19-1.57,1.74-.53.55-1.06,1.04-1.57,1.46-.51.42-.96.69-1.35.8-1.32-.28-1.99-1.86-1.99-4.76,0-.77.09-1.94.27-3.5.09-.71.2-1.45.32-2.23.12-.78.27-1.55.45-2.33.18-.78.39-1.53.62-2.26.23-.73.51-1.41.82-2.03.15-.29.31-.52.47-.69.17-.17.33-.29.51-.37.17-.08.35-.13.54-.15.19-.02.38-.03.58-.03.24,0,.45.16.64.48.19.32.28.76.28,1.33,0,.35-.03.67-.09.98-.06.3-.14.62-.25.94-.11.32-.22.66-.34,1.03-.12.37-.24.79-.36,1.27-.09.39-.19.83-.3,1.3s-.22.96-.32,1.46c-.1.49-.18.98-.25,1.45-.07.47-.1.9-.1,1.27,0,.26.05.53.14.8.42-.04,1.11-.65,2.08-1.83.5-.59,1.04-1.25,1.64-1.96.59-.71,1.24-1.49,1.93-2.35.51-.64,1.02-1.23,1.52-1.78.5-.55,1.03-1.03,1.57-1.45s1.12-.74,1.73-.98,1.28-.36,2.02-.36c.78,0,1.43.16,1.95.49s.94.78,1.25,1.35c.32.57.56,1.26.73,2.06.17.8.31,1.67.42,2.63.09.81.18,1.62.26,2.41.08.8.24,1.51.49,2.14.24.63.59,1.14,1.04,1.53s1.1.59,1.94.59c.65,0,1.32-.14,2.03-.43.71-.29,1.45-.69,2.23-1.21.78-.51,1.59-1.12,2.43-1.82s1.7-1.46,2.58-2.28c.35-.32.73-.72,1.14-1.21.41-.49.82-.95,1.22-1.4.4-.45.77-.83,1.12-1.15.35-.32.62-.48.84-.48.09,0,.24.04.44.13s.3.23.3.43Z"/>
    <path d="M182.8,179.67c0,.25-.09.51-.27.8-.18.29-.41.58-.7.88-.29.3-.61.59-.97.87s-.72.54-1.08.78-.7.45-1.03.63c-.32.18-.59.32-.8.4-.39.16-.91.3-1.55.42-.64.12-1.31.23-2,.32-.69.09-1.37.16-2.03.21-.66.05-1.22.08-1.67.08-.18,0-.43-.03-.74-.09-.32-.06-.64-.13-.97-.22-.33-.09-.64-.18-.94-.29s-.51-.22-.64-.34c.14.55.26,1.11.36,1.66.11.56.16,1.13.16,1.73,0,.26-.03.58-.1.96-.07.38-.16.76-.27,1.14-.11.38-.24.75-.37,1.11-.14.36-.28.65-.43.88-.39.64-.79,1.22-1.21,1.74-.41.52-.88,1-1.4,1.45-.52.44-1.1.86-1.75,1.25-.65.39-1.39.77-2.23,1.13-.9.38-1.81.64-2.72.79-.91.15-1.85.23-2.83.23-.62,0-1.17-.17-1.65-.52-.48-.35-.89-.82-1.22-1.4-.33-.59-.58-1.26-.76-2.03-.17-.77-.26-1.57-.26-2.41,0-.22.02-.49.06-.8.04-.32.09-.64.16-.98.07-.33.14-.65.21-.96.08-.3.15-.57.23-.78.21-.61.51-1.3.9-2.09.39-.78.85-1.58,1.38-2.4.53-.82,1.11-1.62,1.76-2.41.65-.79,1.32-1.5,2.03-2.12.71-.62,1.44-1.12,2.21-1.5.77-.38,1.53-.57,2.3-.57.26,0,.46.04.62.11.16.07.29.17.41.28.11.12.21.24.3.37s.2.26.32.39c.05.07.11.11.2.11.12,0,.27-.03.45-.09.18-.06.38-.09.61-.09.29,0,.64.18,1.06.53.42.36.86.75,1.32,1.17.46.43.92.82,1.38,1.17.46.36.87.53,1.23.53.41,0,.84,0,1.31-.02.47-.01.94-.04,1.42-.08.48-.04.96-.08,1.42-.14.47-.06.9-.12,1.29-.2.11-.03.35-.09.74-.2.39-.1.85-.22,1.37-.36.52-.14,1.07-.29,1.65-.45.58-.16,1.12-.31,1.61-.45.5-.14.91-.25,1.23-.34.32-.09.5-.13.53-.13.09,0,.17.02.25.07.08.04.11.12.11.24ZM165.19,183.15c-.09-.29-.27-.57-.53-.85-.26-.28-.56-.52-.9-.74s-.7-.39-1.07-.53c-.38-.14-.73-.21-1.06-.21-.27,0-.53.04-.79.13-.26.09-.51.2-.76.34-.25.14-.49.29-.71.46-.23.17-.44.32-.63.47-.59.48-1.15,1.15-1.68,2.01-.53.86-1,1.79-1.4,2.78-.4.99-.72,1.98-.96,2.97-.24.99-.36,1.84-.36,2.57,0,.32.06.63.17.92.11.3.27.56.49.78.21.23.46.41.74.54.29.14.6.21.95.21.9,0,1.74-.16,2.51-.47.77-.31,1.46-.74,2.09-1.28.62-.54,1.18-1.19,1.66-1.95.48-.75.89-1.57,1.22-2.45.33-.88.58-1.8.76-2.77.17-.97.27-1.95.28-2.94Z"/>
    <path d="M229.9,183.52c0,.49-.26,1.12-.79,1.89-1.05,1.45-2.09,2.73-3.11,3.85-1.02,1.12-2.08,2.12-3.18,3-.39.32-.83.63-1.31.95-.48.31-1.01.62-1.58.92-1.16.59-2.11.89-2.84.89-.98,0-1.86-.5-2.64-1.5-.78-1.03-1.46-2.17-2.03-3.44-.29-.65-.58-1.3-.88-1.96-.3-.65-.61-1.33-.93-2.02-.6-1.36-1.12-2.04-1.56-2.04-.63,0-1.34.53-2.12,1.59-.78,1.06-1.79,2.63-3.02,4.72-1.22,2.1-2.25,3.69-3.09,4.77-.84,1.08-1.61,1.62-2.3,1.62-1.04,0-1.74-.47-2.1-1.41-.33-.96-.53-2.56-.61-4.81-.03-1.13-.06-2.08-.09-2.86-.03-.78-.06-1.38-.09-1.82-.06-.88-.38-1.59-.95-2.11-.53.03-1.3.63-2.32,1.81-1.04,1.19-1.95,2.37-2.74,3.56-.79,1.18-1.55,2.36-2.27,3.53-.23.38-.44.74-.65,1.09-.21.35-.43.7-.65,1.07-.35.61-.67,1.13-.96,1.58-.29.44-.55.82-.78,1.12-.44.61-.96.91-1.58.91-1.14,0-1.9-.57-2.26-1.7-.35-1.2-.52-2.48-.52-3.83,0-.46.01-.92.05-1.37.03-.45.08-.89.14-1.33.06-.43.14-.94.24-1.51.1-.57.21-1.21.35-1.92.29-1.41.49-2.45.61-3.13.17-.96.29-1.78.38-2.46.09-.68.14-1.25.14-1.7,0-.35.11-.64.32-.88.21-.24.5-.36.88-.36,1.5,0,2.26.99,2.26,2.98,0,.52-.04,1.11-.11,1.75-.08.65-.18,1.32-.3,2.02-.13.7-.26,1.41-.41,2.12-.14.71-.28,1.39-.42,2.04-.27,1.6-.41,2.67-.41,3.24.41-.38.92-.97,1.53-1.78.62-.81,1.34-1.86,2.17-3.13.86-1.28,1.65-2.4,2.37-3.38s1.4-1.82,2.03-2.51c1.26-1.38,2.63-2.07,4.09-2.07.33,0,.58.06.74.17.81.59,1.39,1.71,1.74,3.35.18.83.34,1.69.49,2.6.14.91.27,1.88.37,2.93.2,2.02.39,3.02.59,3.02.29,0,.77-.57,1.44-1.72.06-.1.21-.36.45-.76.24-.41.5-.85.79-1.33.29-.48.55-.93.8-1.35.25-.42.42-.7.51-.85,1.07-1.77,2.09-3.16,3.07-4.18,1.01-1.09,2-1.63,2.98-1.63.9,0,1.53.3,1.9.89.2.29.39.67.6,1.13.2.46.42,1.01.64,1.63.26.75.5,1.44.73,2.06.23.62.45,1.17.67,1.66.21.49.45.98.73,1.45.28.47.61.93.98,1.38.75.9,1.59,1.35,2.53,1.35,1.02,0,2.5-.82,4.42-2.46.96-.83,1.94-1.71,2.95-2.65,1-.94,2.04-1.94,3.13-3,.18-.17.35-.26.5-.26.23,0,.34.19.34.57Z"/>
    <path d="M266.28,179.41c0,.15-.05.31-.14.5-.56,1.06-1.2,2.15-1.94,3.28-.74,1.13-1.53,2.24-2.39,3.33s-1.76,2.11-2.7,3.08c-.94.96-1.88,1.81-2.82,2.54-.94.73-1.87,1.31-2.78,1.74-.91.43-1.76.64-2.56.64-1.75,0-3.11-.64-4.1-1.91-.99-1.28-1.51-3.16-1.57-5.65l-.29-.11c-.15.15-.39.44-.73.89-.34.45-.74.97-1.22,1.55s-1,1.2-1.58,1.84c-.58.64-1.18,1.22-1.79,1.74-.38.3-.83.67-1.37,1.1-.53.43-1.14.84-1.81,1.24-.67.4-1.4.75-2.2,1.04-.8.3-1.64.47-2.53.51-1.07,0-1.91-.2-2.53-.59-.62-.39-1.08-.89-1.4-1.5s-.52-1.28-.6-2.02c-.08-.74-.12-1.46-.12-2.15,0-.09.01-.3.05-.65.03-.35.08-.79.14-1.32.06-.53.14-1.12.24-1.77.1-.65.22-1.32.36-1.99.14-.67.31-1.34.5-2,.19-.66.41-1.26.67-1.82.14-.3.26-.59.37-.85s.23-.48.36-.66c.13-.18.27-.33.44-.43.17-.11.37-.17.61-.18.3,0,.55.06.76.17.2.12.36.26.49.45.12.18.21.38.26.6.05.22.08.43.08.65s-.1.65-.3,1.28c-.2.64-.43,1.41-.67,2.33-.24.91-.46,1.93-.67,3.06-.2,1.12-.3,2.29-.3,3.49,0,.23.02.5.07.82.05.31.14.61.27.89s.32.52.55.72c.23.2.54.29.91.29.51-.03,1.04-.13,1.58-.32.54-.18,1.08-.41,1.61-.7.53-.28,1.05-.6,1.55-.96.5-.36.95-.72,1.35-1.1.44-.39.9-.84,1.39-1.36.49-.51.97-1.05,1.43-1.61.47-.56.9-1.11,1.31-1.66.41-.55.74-1.06,1.02-1.52.14-.25.33-.61.58-1.09s.5-.99.74-1.52c.25-.54.47-1.04.68-1.52s.33-.84.39-1.09c.06-.22.11-.42.15-.61.04-.19.08-.37.12-.55.05-.18.1-.37.16-.58.06-.2.14-.43.23-.7.05-.1.13-.21.26-.34s.28-.24.46-.34c.18-.1.37-.18.56-.25.2-.07.38-.1.56-.1.42,0,.74.12.96.37.22.25.34.55.37.91,0,.01-.03.18-.1.5-.07.32-.15.74-.26,1.26-.11.52-.21,1.12-.33,1.78-.11.67-.22,1.35-.33,2.06-.11.7-.19,1.39-.26,2.07s-.1,1.28-.1,1.82c0,1.54.27,2.72.8,3.56.53.83,1.24,1.25,2.11,1.25.75,0,1.54-.21,2.36-.64.82-.43,1.65-.99,2.48-1.69s1.65-1.48,2.46-2.34c.8-.86,1.58-1.73,2.31-2.59.74-.86,1.42-1.69,2.05-2.47s1.18-1.44,1.65-1.98c.47-.48.84-.72,1.11-.72.17,0,.3.06.41.17.1.12.16.25.16.41Z"/>
    <path class="cls-5" d="M282.51,181.3c0,.09,0,.21-.02.38-.02.17-.05.33-.11.5-.06.17-.13.32-.21.45-.08.13-.19.2-.33.2-.09,0-.24,0-.45-.01-.21,0-.43-.02-.67-.03-.23-.01-.46-.03-.67-.03-.21,0-.36-.01-.45-.01-2.87.17-5.27,1.19-7.18,3.04-1.88,1.81-3.51,4.23-4.88,7.26-.26.62-.51,1.27-.76,1.94-.25.67-.49,1.37-.71,2.11-.12.41-.21.76-.26,1.08-.05.31-.14.64-.26.99-.03.12-.16.23-.38.34s-.48.21-.76.29c-.28.09-.55.16-.8.22-.26.06-.43.09-.52.09-1.04.06-1.63-.98-1.76-3.11-.05-.58-.06-1.11-.06-1.58,0-.47.03-.93.06-1.37.03-.44.07-.91.12-1.39.05-.49.11-1.03.17-1.64.08-.75.17-1.62.27-2.61.1-.99.23-1.98.36-2.98s.28-1.95.43-2.86c.15-.91.31-1.66.47-2.25.17-.68.39-1.19.69-1.52.29-.33.73-.51,1.3-.54.15,0,.31.04.49.12.17.08.33.18.47.32.14.13.26.27.36.41.1.15.15.28.17.39.01.36,0,.76-.02,1.19-.03.43-.08.87-.16,1.33-.08.46-.17.92-.27,1.38-.11.46-.21.91-.32,1.33-.21.83-.37,1.53-.49,2.12s-.21,1.16-.28,1.71c-.08.55-.15,1.14-.23,1.77-.08.63-.17,1.41-.29,2.34.26-.55.48-1.02.67-1.41.19-.39.36-.74.51-1.03.15-.3.29-.56.42-.79.13-.23.27-.47.42-.73.15-.25.32-.53.5-.84s.41-.67.68-1.11c1.05-1.68,2.18-3.06,3.39-4.12,1.2-1.07,2.36-1.83,3.48-2.29,1.26-.58,2.3-.89,3.11-.94.39-.01.86,0,1.4.07.54.06,1.06.17,1.56.33.5.16.92.37,1.28.62.35.25.53.56.53.92Z"/>
    <path d="M309.55,192.11c0,.23-.05.5-.15.79-.1.3-.25.6-.46.9-.27.45-.63.91-1.07,1.38-.44.47-.94.9-1.49,1.28-.55.38-1.15.7-1.79.95-.65.25-1.32.37-2.01.37-.9,0-1.68-.2-2.34-.59s-1.22-.92-1.69-1.6-.87-1.46-1.17-2.36c-.31-.9-.56-1.85-.76-2.85-.66.93-1.45,1.85-2.36,2.76-.91.91-1.85,1.74-2.82,2.47-.97.73-1.93,1.33-2.87,1.78-.94.46-1.77.69-2.49.69-.48,0-.94-.12-1.39-.35-.44-.23-.84-.54-1.17-.94s-.61-.84-.8-1.35c-.2-.51-.29-1.04-.29-1.61s.05-1.16.15-1.78c.1-.62.26-1.29.5-2.01.23-.72.53-1.5.9-2.34.37-.84.82-1.76,1.37-2.76.6-1.13,1.32-2.2,2.14-3.21.83-1.01,1.67-1.89,2.53-2.65s1.67-1.36,2.45-1.81c.77-.44,1.4-.66,1.88-.66.14,0,.29.03.46.09.17.06.35.12.54.18.19.07.37.12.54.17.17.05.32.08.44.08s.24-.03.36-.08c.12-.05.24-.11.36-.17.12-.07.24-.13.36-.18.12-.06.24-.09.36-.09.18,0,.38.06.59.17.21.12.41.26.61.45.2.18.37.39.52.62.15.23.26.46.32.67.06.26.14.45.24.58.1.12.2.24.29.34.1.1.18.22.25.36.07.14.1.35.1.64,0,.15-.05.45-.16.91-.11.46-.22,1-.35,1.62-.13.62-.24,1.26-.35,1.92-.11.67-.16,1.28-.16,1.83,0,1.55.09,2.82.27,3.81.18.99.43,1.77.74,2.34.32.57.69.97,1.12,1.19s.88.33,1.37.33c1.14,0,2.08-.19,2.81-.57.73-.38,1.38-.94,1.95-1.67.17-.2.31-.38.43-.54.12-.16.24-.24.36-.24.21,0,.4.08.58.24.17.16.26.33.26.5ZM296.93,182.41c0-1.09-.17-1.87-.51-2.35s-.73-.72-1.16-.72c-.38,0-.76.07-1.14.21-.38.14-.75.32-1.09.53-.35.22-.66.46-.95.72-.29.26-.52.51-.7.76-.36.46-.74.99-1.14,1.59-.4.59-.8,1.22-1.2,1.87-.4.65-.78,1.32-1.14,2-.36.68-.68,1.35-.96,1.99-.28.65-.5,1.26-.67,1.85-.17.59-.25,1.11-.25,1.58,0,.68.14,1.23.41,1.64s.78.62,1.53.62c.26,0,.63-.16,1.13-.47.5-.31,1.03-.71,1.59-1.19s1.12-1,1.66-1.55c.54-.56.99-1.09,1.33-1.6.38-.54.76-1.12,1.14-1.76.38-.64.73-1.29,1.05-1.96.32-.67.57-1.32.77-1.97.2-.64.29-1.24.29-1.79Z"/>
  </g>
  <ellipse class="cls-3" cx="103.39" cy="51.42" rx="5.45" ry="3.26" transform="translate(12.53 122.69) rotate(-64.55)"/>
  <ellipse class="cls-3" cx="95.17" cy="60.94" rx="2.55" ry="2.45"/>
  <ellipse class="cls-3" cx="48.89" cy="66.55" rx="3.81" ry="5.56" transform="translate(-20.6 111.18) rotate(-86.41)"/>
  <ellipse class="cls-3" cx="32.19" cy="68.93" rx="4.26" ry="1.43" transform="translate(-9.96 5.6) rotate(-8.61)"/>
  <ellipse class="cls-3" cx="108.6" cy="22.1" rx="3.32" ry="2.6" transform="translate(56.17 119.73) rotate(-73.27)"/>
  <g class="cls-6">
    <path class="cls-1" d="M11.84,130.82c-3.77-34.42,28.96-49.19,52.3-43.3,33.44,8.44,57.8-1.53,59.68-31.59,2.08-33.34,16.43-51.12,51.38-43.09"/>
    <path class="cls-1" d="M2.31,119.88c-3.77-34.42,27.48-48.86,50.82-42.97,33.44,8.44,57.8-1.53,59.68-31.59,2.08-33.34,15.6-49.3,50.55-41.28"/>
  </g>
  <g>
    <path class="cls-4" d="M302.69,216.32c-7.59,4.21-3.52,11.41,4.5,7.47l-4.5-7.47Z"/>
    <path class="cls-4" d="M309.13,222.71l-4.5-7.47c1.8-1.03,7.83-4.59,10.39-5.75,8.04-3.67,11.03,1.83,5.19,7.09-3.44,3.1-11.08,6.14-11.08,6.14Z"/>
  </g>
  <g>
    <path class="cls-4" d="M358.43,181.32c-5.77,6.35.51,11.9,6.77,5.67l-6.77-5.67Z"/>
    <path class="cls-4" d="M366.67,185.35l-6.77-5.67c1.36-1.54,5.87-6.79,7.89-8.68,6.37-5.98,11.05-1.71,7.29,5.09-2.22,4.01-8.42,9.26-8.42,9.26Z"/>
  </g>
  <g>
    <path class="cls-4" d="M389.9,135.84c-2.83,7.99,5.17,10.81,8.5,2.76l-8.5-2.76Z"/>
    <path class="cls-4" d="M399.12,136.55l-8.5-2.76c.65-1.92,2.75-8.43,3.87-10.92,3.54-7.87,9.55-5.63,8.75,2.03-.47,4.52-4.13,11.65-4.13,11.65Z"/>
  </g>
  <g>
    <path class="cls-4" d="M324.04,190.57c-7.01,5.01-12.2-1.57-5.27-7.06l5.27,7.06Z"/>
    <path class="cls-4" d="M320.57,182.23l5.27,7.06c1.69-1.18,7.47-5.06,9.59-6.85,6.68-5.63,2.67-10.54-4.63-7.51-4.3,1.78-10.23,7.31-10.23,7.31Z"/>
  </g>
  <g>
    <path class="cls-4" d="M365.35,149.56c-5.43,6.58-12.2,1.53-6.99-5.5l6.99,5.5Z"/>
    <path class="cls-4" d="M359.76,142.38l6.99,5.5c1.32-1.56,5.85-6.75,7.42-9,4.94-7.1-.25-10.84-6.49-6.1-3.68,2.79-7.92,9.61-7.92,9.61Z"/>
  </g>
  <g>
    <path class="cls-4" d="M384.58,99.49c-.76,8.38-9.31,7.75-8.98-.88l8.98.88Z"/>
    <path class="cls-4" d="M375.79,96.46l8.98.88c.21-2,1.02-8.74,1.04-11.45.06-8.55-6.41-8.92-8.91-1.64-1.47,4.29-1.11,12.22-1.11,12.22Z"/>
  </g>
</svg>